<svg width="64" height="48" viewBox="0 0 64 48" fill="none" xmlns="http://www.w3.org/2000/svg">
<rect x="13" y="27.5" width="11" height="2" fill="#00A9FF"/>
<path d="M12 19L13.5 25.5H24L37.5 28H53V29.5H37.5L32.5 28.5L28 28L24 27.5H12V19Z" fill="#00A9FF"/>
<rect x="36" y="24.5" width="17" height="4" rx="0.4" fill="#00A9FF"/>
<path d="M12 19.5L14 21L18 22H21.5L24.5 21L26.5 19.5L34 20.5L40 22L46 24.5L36 28L13 26L12 19.5Z" fill="#00A9FF"/>
<circle cx="29" cy="21.5" r="1" fill="white"/>
<circle cx="33" cy="22.5" r="1" fill="white"/>
<circle cx="37" cy="23.5" r="1" fill="white"/>
</svg>
