<svg width="64" height="48" viewBox="0 0 64 48" fill="none" xmlns="http://www.w3.org/2000/svg">
<path d="M18.25 13.5C18.25 16.1922 16.2815 18.25 14 18.25C11.7185 18.25 9.75 16.1922 9.75 13.5C9.75 10.8078 11.7185 8.75 14 8.75C16.2815 8.75 18.25 10.8078 18.25 13.5Z" stroke="#00A9FF" stroke-width="1.5"/>
<path d="M17.8061 16L28.8972 20L33 25L28.8972 22.5L17 17.8303L17.8061 16Z" fill="#00A9FF"/>
<rect x="29" y="22.2031" width="26" height="4" rx="2" transform="rotate(-18.3913 29 22.2031)" fill="#00A9FF"/>
<path d="M18.25 33.5004C18.25 30.8077 16.2815 28.7497 14 28.7497C11.7185 28.7497 9.75 30.8077 9.75 33.5004C9.75 36.1932 11.7185 38.2512 14 38.2512C16.2815 38.2512 18.25 36.1932 18.25 33.5004Z" stroke="#00A9FF" stroke-width="1.5"/>
<path d="M17.8061 31.0001L28.8972 26.9996L33 21.9989L28.8972 24.4993L17 29.1695L17.8061 31.0001Z" fill="#00A9FF"/>
<rect width="26.0003" height="4.00047" rx="2" transform="matrix(0.948912 0.315542 0.315467 -0.948936 29 24.7962)" fill="#00A9FF"/>
<circle cx="30.5" cy="23.5" r="3.5" fill="#00A9FF"/>
</svg>
